<svg xmlns="http://www.w3.org/2000/svg" viewBox="0 0 200 200">
  <defs>
    <style>
      .medical-cross { fill: #c41e3a; }
    </style>
  </defs>
  <!-- Top arm -->
  <path class="medical-cross" d="M70 10 C70 10, 50 20, 50 40 C50 60, 65 70, 100 70 C135 70, 150 60, 150 40 C150 20, 130 10, 130 10 L100 35 Z"/>
  <!-- Right arm -->
  <path class="medical-cross" d="M190 70 C190 70, 180 50, 160 50 C140 50, 130 65, 130 100 C130 135, 140 150, 160 150 C180 150, 190 130, 190 130 L165 100 Z"/>
  <!-- Bottom arm -->
  <path class="medical-cross" d="M130 190 C130 190, 150 180, 150 160 C150 140, 135 130, 100 130 C65 130, 50 140, 50 160 C50 180, 70 190, 70 190 L100 165 Z"/>
  <!-- Left arm -->
  <path class="medical-cross" d="M10 130 C10 130, 20 150, 40 150 C60 150, 70 135, 70 100 C70 65, 60 50, 40 50 C20 50, 10 70, 10 70 L35 100 Z"/>
  <!-- Center cross -->
  <g>
    <rect x="85" y="70" width="30" height="60" fill="white"/>
    <rect x="70" y="85" width="60" height="30" fill="white"/>
  </g>
</svg>